# xmcd
#
# Track frame offsets: 
#        150
#        4843
#        13184
#        31732
#        51209
#        71230
#        76691
#        95159
#        114748
#        134401
#        138230
#        158091
#        177903
#        202148
#        219656
#        238204
#        261168
#        280980
#        289289
#        313981
#
# Disc length: 4512 seconds
#
# Revision: 0
# Processed by: cddbd v1.5.1PL2 Copyright (c) Steve Scherf et al.
# Submitted via: ExactAudioCopy v0.95b4
#
DISCID=36119e14
DTITLE=112 - Room 112
DYEAR=1998
DGENRE=R&B
TTITLE0=Room 112
TTITLE1=So much love
TTITLE2=Be with you
TTITLE3=Love me
TTITLE4=The only one
TTITLE5=Anywhere (interlude)
TTITLE6=Anywhere
TTITLE7=Love you like I did
TTITLE8=For a while
TTITLE9=Don't go away
TTITLE10=Stay with me
TTITLE11=Whatcha gonna do
TTITLE12=Crazy over you
TTITLE13=Funny feelings
TTITLE14=Never mind
TTITLE15=Someone to hold
TTITLE16=All my love
TTITLE17=You are the only one
TTITLE18=Your letter
TTITLE19=Sweet love
EXTD=
EXTT0=
EXTT1=
EXTT2=
EXTT3=
EXTT4=
EXTT5=
EXTT6=
EXTT7=
EXTT8=
EXTT9=
EXTT10=
EXTT11=
EXTT12=
EXTT13=
EXTT14=
EXTT15=
EXTT16=
EXTT17=
EXTT18=
EXTT19=
PLAYORDER=
